# xmcd
#
# Track frame offsets:
#	150
#	17175
#	36825
#	51150
#	73875
#	91575
#	105750
#	127350
#	148500
#	161400
#	188550
#	201900
#	231075
#
# Disc length: 3242 seconds
#
# Revision: 0
# Processed by: cddbd v1.5.1PL2 Copyright (c) Steve Scherf et al.
# Submitted via: EasyCDDAExtractor 8.2.3.1
#
DISCID=ae0ca80d
DTITLE=Many More Experience Band - Live - Demo CD
DYEAR=2005
DGENRE=Blues
TTITLE0=Crossroad Blues
TTITLE1=Walkin' Blues
TTITLE2=Milacku, Ver Mi
TTITLE3=Chtel Bych Te Milovat
TTITLE4=A Vona De Mestem
TTITLE5=Barborka Blues
TTITLE6=Little Wing
TTITLE7=Nektery Zensky
TTITLE8=Golden Gate Bridge Blues
TTITLE9=A Leje A Leje
TTITLE10=Blues Stryckovy Taverny
TTITLE11=Propan Butan Blues - Vsechno Bude Dobry
TTITLE12=Blues Vo Zlomenym Srdci
EXTD=
EXTT0=
EXTT1=
EXTT2=
EXTT3=
EXTT4=
EXTT5=
EXTT6=
EXTT7=
EXTT8=
EXTT9=
EXTT10=
EXTT11=
EXTT12=
PLAYORDER=
